<?xml version="1.0" encoding="iso-8859-1"?>
<!-- Uploaded to: SVG Repo, www.svgrepo.com, Generator: SVG Repo Mixer Tools -->
<svg height="800px" width="800px" version="1.1" id="Capa_1" xmlns="http://www.w3.org/2000/svg" xmlns:xlink="http://www.w3.org/1999/xlink" 
	 viewBox="0 0 469.551 469.551" xml:space="preserve">
<g>
	<g>
		<path style="fill:#010002;" d="M33.155,139.064v306.62h306.62v-85.368V139.064H99.948H33.155z M327.841,150.998v197.39v23.867
			v61.495H45.089V150.998h42.926h23.867H327.841z"/>
		<path style="fill:#010002;" d="M105.915,0v115.196H88.014H9.287v354.354h354.354v-97.302v-17.901h96.622V0H105.915z
			 M351.708,360.315v97.302H21.221V127.13h78.727h251.76V360.315z M141.716,115.196V35.801h282.752v282.752h-60.826V115.196H141.716
			z M448.33,342.415h-78.721v-11.934h66.787V23.867H129.782v85.362h-11.934V11.934h330.487v330.481H448.33z"/>
	</g>
</g>
</svg>