<?xml version="1.0" encoding="utf-8"?>
<!-- Svg Vector Icons : http://www.onlinewebfonts.com/icon -->
<!DOCTYPE svg PUBLIC "-//W3C//DTD SVG 1.1//EN" "http://www.w3.org/Graphics/SVG/1.1/DTD/svg11.dtd">
<svg version="1.1" xmlns="http://www.w3.org/2000/svg" xmlns:xlink="http://www.w3.org/1999/xlink" x="0px" y="0px" viewBox="0 0 256 256" enable-background="new 0 0 256 256" xml:space="preserve">
<metadata> Svg Vector Icons : http://www.onlinewebfonts.com/icon </metadata>
<g><g><g><g><path fill="#000000" d="M215.4,32.8h23.3v184.9h-23.3V32.8z M169.1,39.5l-3.2,1c-4,1.3-8.8-0.5-10.4-3.9c-0.8-1.6-0.8-3.4-0.1-5.1c0.8-1.9,2.6-3.4,4.8-4.1l36.4-11.3l4.5,32.4c0.2,1.7-0.2,3.3-1.3,4.7c-1.3,1.7-3.5,2.8-5.9,3.1c-0.3,0-0.6,0-0.9,0c-4.1,0-7.6-2.6-8.1-6.1l-0.6-4.9c-42,58.2-138.9,120.6-143,123.3c-1.4,0.9-3.1,1.4-4.9,1.4c-2.4,0-4.7-0.9-6.3-2.5c-1.4-1.4-2.1-3.3-1.9-5.2c0.2-1.9,1.4-3.8,3.2-4.9C32.2,156.8,128.1,94.8,169.1,39.5z M196.6,73.9v143.9h-23.3V73.9H196.6z M155.9,116.6v101.1h-23.3V116.6H155.9z M113.7,161v56.7H90.5V161H113.7z M69.2,183.2v34.5H45.9v-34.5H69.2z M246,239.9H10v-17.3h236V239.9L246,239.9z"/></g></g><g></g><g></g><g></g><g></g><g></g><g></g><g></g><g></g><g></g><g></g><g></g><g></g><g></g><g></g><g></g></g></g>
</svg>